<svg xmlns="http://www.w3.org/2000/svg" width="27.4" height="27.4" viewBox="0 0 27.4 27.4">
  <g id="Object_enlargement_interface" data-name="Object, enlargement, interface" transform="translate(-10 -10)">
    <path id="Path_8" data-name="Path 8" d="M48.267,10H32.283A2.29,2.29,0,0,0,30,12.283V28.267a2.291,2.291,0,0,0,2.283,2.283H48.267a2.291,2.291,0,0,0,2.283-2.283V12.283A2.29,2.29,0,0,0,48.267,10Zm0,18.267H32.283V12.283H48.267Z" transform="translate(-13.15 0)" fill="#36ffc8"/>
    <path id="Path_9" data-name="Path 9" d="M43.333,33.537l1.209,1.213,8.494-8.493v2.785H54.75l0-4.568a1.141,1.141,0,0,0-1.141-1.142H49.04v1.713h2.783Z" transform="translate(-21.916 -8.767)" fill="#36ffc8"/>
    <path id="Path_10" data-name="Path 10" d="M21.417,59.133v2.284H12.283V52.283h2.283V50H11.142A1.145,1.145,0,0,0,10,51.142V62.558A1.145,1.145,0,0,0,11.142,63.7H22.558A1.145,1.145,0,0,0,23.7,62.558V59.133Z" transform="translate(0 -26.3)" fill="#36ffc8"/>
  </g>
</svg>

