<svg xmlns="http://www.w3.org/2000/svg" width="40.8" height="48" viewBox="0 0 40.8 48">
  <g id="Group_7" data-name="Group 7" transform="translate(-88 -16)">
    <path id="Path_11" data-name="Path 11" d="M120,16a8.81,8.81,0,0,0-8.8,8.8v1.6h7.861L117.689,28H91.911l-1.371-1.6H108.8V24.8h-20a.8.8,0,0,0-.607,1.321L102.4,42.7V59.2h-4a4,4,0,0,0-4,4,.8.8,0,0,0,.8.8h19.2a.8.8,0,0,0,.8-.8,4,4,0,0,0-4-4h-4V42.7l13.968-16.3H128a.8.8,0,0,0,.8-.8v-.8A8.81,8.81,0,0,0,120,16ZM93.282,29.6h23.035l-10.286,12h-2.464Zm20.181,32.8H96.137A2.4,2.4,0,0,1,98.4,60.8h12.8A2.4,2.4,0,0,1,113.463,62.4ZM104,59.2v-16h1.6v16Zm16.8-38.319a3.99,3.99,0,0,1,1.856.932L120.8,23.669Zm-1.6,2.788-1.856-1.856a3.99,3.99,0,0,1,1.856-.932Zm-2.823-.561,1.692,1.692H116A3.975,3.975,0,0,1,116.376,23.108Zm5.555,1.692,1.692-1.692A3.975,3.975,0,0,1,124,24.8Zm3.669,0a5.6,5.6,0,0,0-11.2,0h-1.6a7.2,7.2,0,1,1,14.4,0Z" fill="#006fff"/>
    <rect id="Rectangle_10" data-name="Rectangle 10" width="1.6" height="1.384" transform="translate(96.992 31.47) rotate(-40.599)" fill="#006fff"/>
    <rect id="Rectangle_11" data-name="Rectangle 11" width="1.6" height="4.863" transform="matrix(0.759, -0.651, 0.651, 0.759, 98.842, 33.628)" fill="#006fff"/>
  </g>
</svg>
